<svg width="150" height="150" viewBox="0 0 200 200" fill="none" xmlns="http://www.w3.org/2000/svg">
<path d="M100 126.008C98.9055 126.009 97.8216 125.794 96.8106 125.375C95.7995 124.956 94.8812 124.342 94.1083 123.567L58.75 88.2167C57.232 86.645 56.3921 84.54 56.411 82.355C56.43 80.17 57.3064 78.0799 58.8515 76.5348C60.3966 74.9898 62.4867 74.1134 64.6717 74.0944C66.8566 74.0754 68.9616 74.9154 70.5333 76.4333L100 105.892L129.467 76.4333C131.038 74.9154 133.143 74.0754 135.328 74.0944C137.513 74.1134 139.603 74.9898 141.148 76.5348C142.694 78.0799 143.57 80.17 143.589 82.355C143.608 84.54 142.768 86.645 141.25 88.2167L105.892 123.567C105.119 124.342 104.201 124.956 103.189 125.375C102.178 125.794 101.094 126.009 100 126.008Z" fill="#6563FF"/>
</svg>
