<svg width="512" height="512" viewBox="0 0 512 512" fill="none" xmlns="http://www.w3.org/2000/svg">
<path d="M341.5 220.5C368.5 226 290.167 406 262 406C233.833 406 192 283.46 192 220.5C268 220.5 206.5 393.5 262 393.5C317.5 393.5 262 220.5 341.5 220.5Z" fill="#6563FF" fill-opacity="0.5"/>
<path d="M197.729 240.5C197.729 337.702 288.576 405.5 253.229 405.5C217.883 405.5 131.729 337.702 131.729 240.5C131.729 143.298 34.3831 106 69.7294 106C105.076 106 197.729 143.298 197.729 240.5Z" fill="#6563FF"/>
<path d="M386.729 271C386.729 173.798 477.576 106 442.229 106C406.883 106 320.729 173.798 320.729 271C320.729 368.202 223.383 405.5 258.729 405.5C294.076 405.5 386.729 368.202 386.729 271Z" fill="#6563FF"/>
</svg>
