<svg width="100" height="100" viewBox="0 0 100 100" fill="none" xmlns="http://www.w3.org/2000/svg">
<path d="M36.9958 50C36.9953 49.4527 37.1028 48.9108 37.3123 48.4052C37.5219 47.8997 37.8292 47.4405 38.2167 47.0541L55.8917 29.375C56.6775 28.616 57.73 28.196 58.8225 28.2055C59.915 28.215 60.9601 28.6532 61.7326 29.4257C62.5051 30.1982 62.9433 31.2433 62.9528 32.3358C62.9623 33.4283 62.5423 34.4808 61.7833 35.2666L47.0542 50L61.7833 64.7333C62.5423 65.5191 62.9623 66.5716 62.9528 67.6641C62.9433 68.7566 62.5051 69.8017 61.7326 70.5742C60.9601 71.3467 59.915 71.7849 58.8225 71.7944C57.73 71.8039 56.6775 71.384 55.8917 70.625L38.2167 52.9458C37.8292 52.5594 37.5219 52.1002 37.3123 51.5947C37.1028 51.0891 36.9953 50.5472 36.9958 50Z" fill="#6563FF"/>
</svg>
