<svg width="539" height="386" viewBox="0 0 539 386" fill="none" xmlns="http://www.w3.org/2000/svg">
<path d="M172.069 46.1334H450.523V312.017H172.069V46.1334Z" fill="url(#paint0_radial_3_7)"/>
<path d="M466.242 117.209C468.366 117.209 470.089 115.564 470.089 113.535C470.089 111.507 468.366 109.862 466.242 109.862C464.117 109.862 462.395 111.507 462.395 113.535C462.395 115.564 464.117 117.209 466.242 117.209Z" fill="#B3EFFF"/>
<path d="M120.864 90.7679C122.989 90.7679 124.711 89.1232 124.711 87.0945C124.711 85.0657 122.989 83.421 120.864 83.421C118.739 83.421 117.017 85.0657 117.017 87.0945C117.017 89.1232 118.739 90.7679 120.864 90.7679Z" fill="#B3EFFF"/>
<path d="M369.754 85.499C382.906 98.1148 404.263 98.1662 417.476 85.6148C430.688 73.0634 430.742 52.6633 417.597 40.0475C404.452 27.4317 383.087 27.3803 369.875 39.9317C356.67 52.4831 356.616 72.8832 369.754 85.499Z" fill="url(#paint1_linear_3_7)"/>
<path d="M180.093 58.4468C184.767 58.4468 188.556 54.8292 188.556 50.3666C188.556 45.904 184.767 42.2863 180.093 42.2863C175.42 42.2863 171.631 45.904 171.631 50.3666C171.631 54.8292 175.42 58.4468 180.093 58.4468Z" fill="url(#paint2_linear_3_7)"/>
<path opacity="0.6" d="M44.2384 137.886C47.7436 137.886 50.5852 135.172 50.5852 131.825C50.5852 128.478 47.7436 125.765 44.2384 125.765C40.7332 125.765 37.8917 128.478 37.8917 131.825C37.8917 135.172 40.7332 137.886 44.2384 137.886Z" fill="url(#paint3_linear_3_7)"/>
<path d="M290.09 58.4468C292.214 58.4468 293.937 56.8022 293.937 54.7734C293.937 52.7446 292.214 51.1 290.09 51.1C287.965 51.1 286.243 52.7446 286.243 54.7734C286.243 56.8022 287.965 58.4468 290.09 58.4468Z" fill="#125CAE"/>
<path d="M233.171 52.7212L233.98 54.2909L235.792 54.5418L234.478 55.7577L234.788 57.4818L233.171 56.6712L231.554 57.4818L231.858 55.7577L230.551 54.5418L232.363 54.2909L233.171 52.7212Z" fill="white"/>
<path opacity="0.4" d="M69.6253 92.6143L70.4338 94.184L72.2462 94.4349L70.9324 95.6572L71.2423 97.3749L69.6253 96.5643L68.0016 97.3749L68.3115 95.6572L67.0044 94.4349L68.8168 94.184L69.6253 92.6143Z" fill="white"/>
<path d="M40.7754 186.271L41.5839 187.84L43.3962 188.091L42.0892 189.314L42.3924 191.031L40.7754 190.221L39.1584 191.031L39.4683 189.314L38.1545 188.091L39.9669 187.84L40.7754 186.271ZM501.883 154.606L502.692 156.176L504.504 156.426L503.197 157.649L503.5 159.367L501.883 158.556L500.266 159.367L500.576 157.649L499.262 156.426L501.075 156.176L501.883 154.606ZM476.469 70.831L477.278 72.4007L479.09 72.6516L477.783 73.874L478.093 75.5917L476.469 74.7811L474.852 75.5917L475.162 73.874L473.848 72.6516L475.661 72.4007L476.469 70.831Z" fill="white"/>
<path d="M210.506 236.084L428.586 131.259L235.556 284.765" fill="url(#paint4_linear_3_7)"/>
<path d="M328.985 193.29L428.586 131.259L308.47 189.224L328.985 193.29Z" fill="url(#paint5_linear_3_7)"/>
<path d="M123.566 347.349C113.433 354.541 89.4538 361.135 89.4538 361.135C89.4538 361.135 91.374 360.087 94.5271 358.6C97.6803 357.108 100.294 353.956 100.294 353.956C100.294 353.956 93.8534 357.706 84.8992 360.595C75.9518 363.483 63.9793 365.581 63.9793 365.581C63.9793 365.581 66.4115 364.455 70.6764 361.791C74.948 359.128 82.2851 354.49 82.2851 354.49C82.2851 354.49 63.9726 364.069 35.9783 365.909C25.0231 366.629 7.10806 370.373 7.10806 370.373C7.10806 370.373 15.7657 363.245 19.8824 359.134C26.4245 352.611 34.0311 342.118 39.9938 335.492C48.8738 325.623 67.1055 308.266 67.1055 308.266L63.4403 309.836C59.7751 311.405 55.3418 313.091 55.3418 313.091C55.3418 313.091 73.6746 296.403 87.318 291.372C102.693 285.704 123.209 288.291 123.209 288.291C123.209 288.291 125.014 296.667 131.725 307.513C138.664 318.72 144.371 323.288 144.371 323.288C144.371 323.288 139.089 336.335 123.566 347.349Z" fill="url(#paint6_linear_3_7)"/>
<path d="M126.011 337.66C118.398 343.064 100.375 348.024 100.375 348.024C100.375 348.024 101.817 347.239 104.189 346.12C106.56 345 108.521 342.626 108.521 342.626C108.521 342.626 103.677 345.444 96.9526 347.612C90.2286 349.78 81.234 351.363 81.234 351.363C81.234 351.363 83.0599 350.514 86.2669 348.513C89.474 346.512 94.992 343.025 94.992 343.025C94.992 343.025 81.2273 350.224 60.1861 351.607C51.9529 352.148 38.4913 354.959 38.4913 354.959C38.4913 354.959 44.9998 349.6 48.0923 346.512C53.0106 341.61 58.724 333.729 63.2112 328.743C69.8881 321.326 83.5854 308.285 83.5854 308.285L80.8298 309.463C78.0742 310.64 74.7391 311.907 74.7391 311.907C74.7391 311.907 88.5173 299.369 98.7717 295.586C110.327 291.327 125.749 293.27 125.749 293.27C125.749 293.27 127.103 299.568 132.149 307.713C137.364 316.14 141.656 319.563 141.656 319.563C141.656 319.563 137.674 329.38 126.011 337.66Z" fill="url(#paint7_linear_3_7)"/>
<path d="M137.546 269.428C138.705 267.762 171.031 234.682 210.325 215.272C249.618 195.863 267.425 194.203 267.425 194.203C267.425 194.203 277.295 200.855 287.166 218.232C297.036 235.608 299.94 242.627 299.165 244.846C298.39 247.066 260.068 286.618 218.059 303.068C176.058 319.518 171.22 320.444 171.22 320.444C171.22 320.444 165.992 319.891 159.995 311.206C153.999 302.521 140.059 280.892 138.51 276.087C136.96 271.281 137.546 269.428 137.546 269.428Z" fill="url(#paint8_linear_3_7)"/>
<path d="M330.912 192.17C328.588 189.031 325.495 188.471 306.718 188.657C287.941 188.844 268.395 194.756 268.395 194.756L268.617 195.104C271.528 197.426 279.344 204.458 287.172 218.232C294.604 231.311 298.08 238.522 299.024 242.234L299.758 243.367L303.046 240.407C306.334 237.448 319.883 218.412 324.916 209.54C329.949 200.675 333.237 195.31 330.912 192.17Z" fill="url(#paint9_linear_3_7)"/>
<path d="M172.776 319.885L151.291 363.136C151.291 363.136 172.386 354.818 196.971 339.294C221.556 323.77 223.49 321.364 223.49 321.364L230.072 297.709C230.065 297.709 190.584 315.079 172.776 319.885Z" fill="url(#paint10_linear_3_7)"/>
<path d="M185.739 229.689L163.095 225.257C163.095 225.257 143.158 233.202 126.51 243.553C109.862 253.904 93.6041 265.549 93.6041 265.549L139.089 267.768C139.096 267.762 171.227 236.341 185.739 229.689Z" fill="url(#paint11_linear_3_7)"/>
<path d="M159.995 311.2C153.992 302.515 140.059 280.886 138.51 276.08C138.085 274.774 137.829 273.693 137.667 272.799L125.931 281.066C125.931 281.066 125.156 289.198 135.606 304.355C146.056 319.511 151.479 324.684 153.992 324.497C156.505 324.311 167.346 318.952 167.346 318.952L167.124 318.604C165.163 317.298 162.657 315.047 159.995 311.2Z" fill="url(#paint12_linear_3_7)"/>
<path d="M126.705 285.878L123.222 288.278C123.222 288.278 122.838 293.45 130.768 306.021C138.705 318.592 143.542 323.211 145.671 323.397C147.801 323.584 149.35 321.731 149.35 321.731C149.35 321.731 130.768 301.955 126.705 285.878Z" fill="url(#paint13_linear_3_7)"/>
<path d="M199.875 258.523L182.451 264.256C182.451 264.256 155.441 278.563 146.642 283.665C135.606 290.06 103.286 310.466 103.286 310.466L104.64 313.239L184.776 267.588L202.388 261.116L199.875 258.523Z" fill="url(#paint14_linear_3_7)"/>
<path d="M104.64 313.233L148.771 293.823C148.771 293.823 165.722 284.572 171.227 281.252C179.184 276.46 202.388 261.11 202.388 261.11L184.001 267.762L104.64 313.233Z" fill="url(#paint15_linear_3_7)"/>
<path d="M279.236 101.975L283.494 100.309C283.494 100.309 284.565 100.778 285.623 103.081C286.977 106.041 287.172 108.074 287.172 108.074L282.914 110.293C282.908 110.293 280.779 104.748 279.236 101.975Z" fill="black"/>
<path d="M240.131 138.574L283.682 113.439C283.682 113.439 284.201 109.495 282.652 106.047C281.102 102.599 279.296 101.608 279.296 101.608L223.294 125.823" fill="url(#paint16_linear_3_7)"/>
<path d="M220.451 125.694C220.451 125.694 212.063 134.502 210.129 144.113C208.195 153.724 208.384 169.801 207.805 175.167C207.225 180.526 204.321 190.51 202.576 195.129C200.831 199.749 200.252 206.22 200.252 206.22C200.252 206.22 212.447 207.514 225.996 206.034C239.545 204.554 244.383 202.894 244.383 202.894C244.383 202.894 243.608 187.738 242.186 182.81C240.765 177.882 240.381 176.158 240.381 176.158C240.381 176.158 240.899 174.311 242.186 170.985C243.48 167.659 249.928 155.828 248.897 151.273C247.866 146.712 245.285 140.06 243.089 137.841C240.893 135.621 239.99 135.254 239.99 135.254C239.99 135.254 234.957 128.351 231.474 125.148C227.99 121.944 223.732 122.311 223.732 122.311L220.451 125.694Z" fill="url(#paint17_linear_3_7)"/>
<path opacity="0.5" d="M223.685 155.095C223.685 155.095 225.942 161.38 229.688 165.568C233.427 169.756 241.108 174.073 241.108 174.073L242.2 170.985L224.204 155.101" fill="url(#paint18_linear_3_7)"/>
<path d="M238.191 132.842C236.412 130.539 233.65 127.129 231.487 125.141C228.004 121.937 223.746 122.304 223.746 122.304L220.498 125.649C222.829 127.013 228.583 128.023 232.262 130.069C234.499 131.311 236.54 132.211 238.191 132.842Z" fill="url(#paint19_linear_3_7)"/>
<path d="M222.715 181.33C222.715 181.33 226.845 181.208 232.781 179.85C238.716 178.493 239.747 177.631 239.747 177.631L238.454 182.681C238.454 182.681 235.482 184.65 231.224 185.023C226.966 185.389 222.317 185.518 222.317 185.518L222.715 181.33Z" fill="url(#paint20_linear_3_7)"/>
<path d="M204.133 206.465C204.133 206.465 205.292 212.377 209.294 214.597C213.296 216.816 217.163 218.54 217.163 218.54L235.489 231.851L206.457 243.064C206.457 243.064 210.197 251.44 213.296 255.635C216.395 259.823 218.585 261.798 218.585 261.425C218.585 261.052 236.911 252.92 246.714 249.35C256.524 245.779 261.422 243.682 263.234 240.111C265.04 236.541 261.172 232.475 259.36 229.271C257.554 226.067 245.292 209.559 243.102 207.218C240.913 204.876 239.1 204.136 239.1 204.136C239.1 204.136 218.969 207.822 204.133 206.465Z" fill="black"/>
<path d="M206.45 243.058L198.581 242.936L189.418 246.879L193.292 255.506L195.098 254.4C195.098 254.4 196.001 262.654 198.581 268.199C201.162 273.745 206.841 278.428 208.128 278.306C209.422 278.184 210.453 276.209 210.453 276.209C210.453 276.209 205.938 268.939 206.841 264.873C207.744 260.807 209.678 254.278 209.678 254.278L211.099 252.798C211.099 252.791 206.713 245.155 206.45 243.058Z" fill="url(#paint21_linear_3_7)"/>
<path d="M206.45 243.058L200.508 242.968C200.804 244.364 201.343 246.525 201.936 247.252C202.745 248.249 207.502 249.839 209.961 253.982L211.099 252.798C211.099 252.791 206.713 245.155 206.45 243.058Z" fill="white"/>
<path d="M208.128 278.3C208.478 278.267 208.809 278.094 209.105 277.869C206.632 276.318 204.032 273.423 201.546 270.29C197.934 265.729 197.672 256.368 197.159 254.393C196.728 252.753 194.067 247.104 193.184 245.252L189.418 246.873L193.292 255.5L195.098 254.393C195.098 254.393 196.001 262.647 198.581 268.193C201.162 273.738 206.841 278.422 208.128 278.3ZM229.196 122.677C229.196 122.677 228.812 119.538 228.617 118.238C228.421 116.945 229.196 110.293 232.969 107.61C236.742 104.928 243.325 104.651 247.293 106.504C251.262 108.35 254.839 110.48 255.614 111.773C256.389 113.066 256.773 115.472 256.483 116.212C256.193 116.952 255.708 116.952 255.708 116.952L251.646 113.716C251.646 113.716 248.647 116.675 248.546 117.415C248.452 118.155 247.482 122.311 247.482 122.311C247.482 122.311 245.643 122.22 245.643 121.944C245.643 121.667 243.803 116.771 242.449 116.952C241.095 117.138 239.289 116.765 238.481 119.724C238.251 120.574 237.8 122.684 237.8 122.684L231.797 124.993L229.196 122.677Z" fill="black"/>
<path d="M251.652 113.716C251.652 113.716 248.654 116.675 248.553 117.415C248.459 118.155 247.489 122.311 247.489 122.311C247.489 122.311 245.649 122.22 245.649 121.944C245.649 121.667 243.81 116.771 242.456 116.952C241.101 117.138 239.296 116.765 238.487 119.724C238.258 120.574 237.807 122.684 237.807 122.684L231.804 124.993L239.74 135.19L241.29 134.572C241.29 134.572 247.61 136.605 248.196 136.541C248.775 136.477 249.422 133.891 249.422 133.646C249.422 133.402 250.52 133.151 250.972 133.028C251.423 132.906 250.844 131.98 250.844 131.98L251.942 131.793L252.326 129.574C252.326 129.574 253.162 129.94 253.424 129.94C253.68 129.94 254.718 129.509 254.718 129.509L253.687 122.484L254.846 121.436L255.297 116.752L255.183 116.508L251.652 113.716Z" fill="url(#paint22_linear_3_7)"/>
<path d="M223.746 154.464C223.746 154.464 225.423 160.377 240.522 170.11C255.621 179.844 265.687 185.634 269.17 187.487C272.653 189.333 277.942 193.894 277.942 193.894C277.942 193.894 280.913 190.69 282.584 187.731C284.262 184.772 284.646 183.292 284.646 183.292C284.646 183.292 266.064 171.094 260.512 166.906C254.96 162.718 247.482 154.213 246.707 152.489C245.932 150.765 245.804 139.307 240.253 136.348C234.701 133.389 228.509 136.348 225.801 142.633C223.092 148.919 223.746 154.464 223.746 154.464Z" fill="url(#paint23_linear_3_7)"/>
<path d="M279.714 191.527L284.363 193.373C284.363 193.373 286.202 191.803 287.172 189.121C288.143 186.438 288.527 185.241 288.527 185.241L284.653 183.299C284.653 183.299 281.459 190.137 279.714 191.527Z" fill="black"/>
<path d="M288.527 185.981C288.527 185.981 295.109 185.241 296.753 185.241C298.397 185.241 301.591 186.168 304.4 187.364C307.21 188.561 309.339 190.414 309.339 190.877C309.339 191.34 308.854 192.08 307.304 191.803C305.754 191.527 299.462 190.234 298.397 190.324C297.333 190.414 292.205 193.006 290.555 193.006C288.904 193.006 285.906 191.9 285.906 191.9C285.906 191.9 288.527 187.364 288.527 185.981Z" fill="url(#paint24_linear_3_7)"/>
<path d="M283.494 100.315C283.494 100.315 286.593 98.8996 288.271 98.0376C289.948 97.1755 293.688 95.3291 296.531 94.2162C299.367 93.1096 303.113 91.1346 303.497 92.1189C303.881 93.1032 296.14 97.42 296.14 97.42C296.14 97.42 298.721 100.379 298.721 100.868C298.721 101.364 296.012 105.674 296.012 105.674C296.012 105.674 293.89 106.407 293.176 106.292C292.461 106.176 290.723 104.812 290.723 104.812L286.849 105.918C286.849 105.918 284.781 101.357 283.494 100.315Z" fill="url(#paint25_linear_3_7)"/>
<path d="M158.102 80.0435C158.839 80.0435 159.436 79.4732 159.436 78.7697C159.436 78.0662 158.839 77.4959 158.102 77.4959C157.365 77.4959 156.768 78.0662 156.768 78.7697C156.768 79.4732 157.365 80.0435 158.102 80.0435Z" fill="white"/>
<path d="M206.511 116.971C206.511 117.318 206.215 117.601 205.851 117.601C205.487 117.601 205.191 117.318 205.191 116.971C205.191 116.623 205.487 116.34 205.851 116.34C206.215 116.34 206.511 116.623 206.511 116.971ZM128.107 127.727C128.111 127.956 128.068 128.183 127.98 128.395C127.892 128.607 127.76 128.8 127.593 128.963C127.425 129.127 127.226 129.256 127.005 129.345C126.785 129.433 126.548 129.479 126.309 129.479C126.069 129.479 125.833 129.433 125.612 129.345C125.392 129.256 125.192 129.127 125.024 128.964C124.857 128.801 124.725 128.608 124.637 128.395C124.548 128.183 124.505 127.956 124.51 127.728C124.519 127.278 124.712 126.85 125.048 126.535C125.385 126.22 125.837 126.043 126.308 126.043C126.779 126.043 127.231 126.22 127.568 126.534C127.904 126.849 128.098 127.278 128.107 127.727ZM79.7248 119.731C79.7248 120.081 79.579 120.418 79.3193 120.666C79.0597 120.914 78.7075 121.053 78.3403 121.053C77.9731 121.053 77.6209 120.914 77.3613 120.666C77.1016 120.418 76.9557 120.081 76.9557 119.731C76.9557 118.997 77.5756 118.405 78.3436 118.405C79.105 118.412 79.7248 119.004 79.7248 119.731ZM200.67 82.1408C200.67 82.8034 200.104 83.3438 199.41 83.3438C198.716 83.3438 198.15 82.8034 198.15 82.1408C198.15 81.4781 198.716 80.9377 199.41 80.9377C200.11 80.9377 200.67 81.4781 200.67 82.1408Z" fill="white"/>
<path d="M440.619 70.4836C441.531 70.4836 442.27 69.7779 442.27 68.9074C442.27 68.0369 441.531 67.3313 440.619 67.3313C439.707 67.3313 438.968 68.0369 438.968 68.9074C438.968 69.7779 439.707 70.4836 440.619 70.4836Z" fill="white"/>
<path d="M500.583 116.231C500.583 116.662 500.219 117.009 499.768 117.009C499.316 117.009 498.952 116.662 498.952 116.231C498.952 115.8 499.316 115.453 499.768 115.453C500.219 115.453 500.583 115.8 500.583 116.231ZM403.455 129.554C403.455 130.732 402.458 131.684 401.225 131.684C399.992 131.684 398.995 130.732 398.995 129.554C398.995 128.377 399.992 127.425 401.225 127.425C402.458 127.425 403.455 128.377 403.455 129.554ZM343.525 119.647C343.525 120.554 342.757 121.288 341.807 121.288C340.857 121.288 340.089 120.554 340.089 119.647C340.089 118.74 340.857 118.007 341.807 118.007C342.262 118.008 342.698 118.182 343.02 118.489C343.342 118.796 343.523 119.213 343.525 119.647ZM493.353 73.0827C493.353 73.9061 492.653 74.5752 491.79 74.5752C490.928 74.5752 490.227 73.9061 490.227 73.0827C490.227 72.2592 490.928 71.5901 491.79 71.5901C492.653 71.5901 493.353 72.2592 493.353 73.0827Z" fill="white"/>
<path d="M368.494 260.106C369.406 260.106 370.145 259.4 370.145 258.53C370.145 257.659 369.406 256.954 368.494 256.954C367.582 256.954 366.843 257.659 366.843 258.53C366.843 259.4 367.582 260.106 368.494 260.106Z" fill="white"/>
<path d="M428.465 305.854C428.465 306.285 428.101 306.632 427.649 306.632C427.198 306.632 426.834 306.285 426.834 305.854C426.834 305.422 427.198 305.075 427.649 305.075C428.101 305.069 428.465 305.422 428.465 305.854ZM331.337 319.177C331.337 320.354 330.34 321.306 329.107 321.306C327.874 321.306 326.877 320.354 326.877 319.177C326.877 318 327.874 317.048 329.107 317.048C330.34 317.048 331.337 318 331.337 319.177ZM271.407 309.27C271.407 310.177 270.639 310.91 269.689 310.91C268.739 310.91 267.971 310.177 267.971 309.27C267.971 308.363 268.739 307.629 269.689 307.629C270.639 307.629 271.407 308.363 271.407 309.27ZM421.235 262.705C421.235 263.529 420.535 264.198 419.672 264.198C418.81 264.198 418.109 263.529 418.109 262.705C418.109 261.882 418.81 261.213 419.672 261.213C420.535 261.213 421.235 261.882 421.235 262.705Z" fill="white"/>
<path d="M301.119 332.359C301.614 332.359 302.015 331.976 302.015 331.503C302.015 331.031 301.614 330.648 301.119 330.648C300.624 330.648 300.223 331.031 300.223 331.503C300.223 331.976 300.624 332.359 301.119 332.359Z" fill="white"/>
<path d="M333.722 357.237C333.722 357.349 333.675 357.457 333.592 357.537C333.508 357.616 333.395 357.661 333.277 357.661C333.159 357.661 333.046 357.616 332.963 357.537C332.879 357.457 332.832 357.349 332.832 357.237C332.832 356.999 333.028 356.812 333.277 356.812C333.526 356.812 333.722 356.999 333.722 357.237ZM280.913 364.48C280.913 364.788 280.786 365.082 280.558 365.299C280.331 365.517 280.022 365.638 279.701 365.638C279.379 365.638 279.07 365.517 278.843 365.299C278.616 365.082 278.488 364.788 278.488 364.48C278.488 363.837 279.034 363.322 279.701 363.322C280.368 363.322 280.913 363.837 280.913 364.48ZM248.324 359.089C248.324 359.578 247.906 359.977 247.394 359.977C246.882 359.977 246.464 359.578 246.464 359.089C246.464 358.6 246.882 358.202 247.394 358.202C247.906 358.202 248.324 358.6 248.324 359.089ZM329.794 333.774C329.794 334.225 329.417 334.585 328.945 334.585C328.473 334.585 328.096 334.225 328.096 333.774C328.096 333.324 328.473 332.964 328.945 332.964C329.41 332.964 329.794 333.324 329.794 333.774Z" fill="white"/>
<path d="M110.044 191.565C110.538 191.565 110.94 191.182 110.94 190.71C110.94 190.237 110.538 189.854 110.044 189.854C109.549 189.854 109.147 190.237 109.147 190.71C109.147 191.182 109.549 191.565 110.044 191.565Z" fill="white"/>
<path d="M142.653 216.443C142.655 216.5 142.646 216.557 142.625 216.611C142.603 216.664 142.571 216.713 142.53 216.754C142.488 216.795 142.438 216.828 142.383 216.85C142.328 216.873 142.269 216.884 142.209 216.885C142.149 216.885 142.09 216.873 142.035 216.851C141.98 216.828 141.93 216.796 141.889 216.754C141.847 216.713 141.815 216.665 141.793 216.611C141.772 216.558 141.762 216.501 141.764 216.444C141.769 216.334 141.817 216.23 141.9 216.154C141.983 216.078 142.093 216.035 142.208 216.035C142.323 216.035 142.434 216.078 142.517 216.154C142.6 216.23 142.649 216.333 142.653 216.443ZM89.8378 223.687C89.8378 223.994 89.7101 224.289 89.4826 224.506C89.2552 224.723 88.9467 224.845 88.6251 224.845C88.3034 224.845 87.995 224.723 87.7675 224.506C87.5401 224.289 87.4123 223.994 87.4123 223.687C87.4123 223.38 87.5401 223.085 87.7675 222.868C87.995 222.651 88.3034 222.529 88.6251 222.529C88.9467 222.529 89.2552 222.651 89.4826 222.868C89.7101 223.085 89.8378 223.38 89.8378 223.687ZM57.2553 218.302C57.2553 218.791 56.8376 219.19 56.3255 219.19C55.8135 219.19 55.3957 218.791 55.3957 218.302C55.3957 217.813 55.8135 217.415 56.3255 217.415C56.8376 217.415 57.2553 217.807 57.2553 218.302ZM138.718 192.981C138.718 193.431 138.341 193.791 137.869 193.791C137.398 193.791 137.021 193.431 137.021 192.981C137.021 192.53 137.398 192.17 137.869 192.17C138.341 192.17 138.718 192.537 138.718 192.981Z" fill="white"/>
<path d="M449.297 171.899C449.792 171.899 450.193 171.516 450.193 171.043C450.193 170.57 449.792 170.187 449.297 170.187C448.802 170.187 448.401 170.57 448.401 171.043C448.401 171.516 448.802 171.899 449.297 171.899Z" fill="white"/>
<path d="M481.906 196.776C481.906 197.008 481.711 197.201 481.462 197.201C481.212 197.201 481.017 197.014 481.017 196.776C481.017 196.545 481.212 196.352 481.462 196.352C481.711 196.352 481.906 196.538 481.906 196.776ZM429.091 204.02C429.091 204.327 428.963 204.622 428.736 204.839C428.508 205.056 428.2 205.178 427.878 205.178C427.557 205.178 427.248 205.056 427.021 204.839C426.793 204.622 426.666 204.327 426.666 204.02C426.666 203.713 426.793 203.419 427.021 203.201C427.248 202.984 427.557 202.862 427.878 202.862C428.2 202.862 428.508 202.984 428.736 203.201C428.963 203.419 429.091 203.713 429.091 204.02ZM396.509 198.636C396.509 199.125 396.091 199.523 395.579 199.523C395.067 199.523 394.649 199.125 394.649 198.636C394.649 198.147 395.067 197.748 395.579 197.748C396.091 197.741 396.509 198.14 396.509 198.636ZM477.972 173.314C477.972 173.764 477.594 174.125 477.123 174.125C476.651 174.125 476.274 173.764 476.274 173.314C476.274 172.864 476.651 172.503 477.123 172.503C477.594 172.503 477.972 172.87 477.972 173.314Z" fill="white"/>
<path d="M351.118 115.163C351.613 115.163 352.014 114.78 352.014 114.307C352.014 113.835 351.613 113.452 351.118 113.452C350.623 113.452 350.222 113.835 350.222 114.307C350.222 114.78 350.623 115.163 351.118 115.163Z" fill="white"/>
<path d="M383.728 140.041C383.728 140.272 383.532 140.465 383.283 140.465C383.034 140.465 382.838 140.279 382.838 140.041C382.838 139.809 383.034 139.616 383.283 139.616C383.532 139.616 383.728 139.803 383.728 140.041ZM330.912 147.285C330.912 147.592 330.785 147.886 330.557 148.104C330.33 148.321 330.021 148.443 329.7 148.443C329.378 148.443 329.069 148.321 328.842 148.104C328.615 147.886 328.487 147.592 328.487 147.285C328.487 146.978 328.615 146.683 328.842 146.466C329.069 146.249 329.378 146.127 329.7 146.127C330.021 146.127 330.33 146.249 330.557 146.466C330.785 146.683 330.912 146.978 330.912 147.285ZM298.33 141.9C298.33 142.389 297.912 142.788 297.4 142.788C296.888 142.788 296.47 142.389 296.47 141.9C296.47 141.411 296.888 141.012 297.4 141.012C297.912 141.006 298.33 141.405 298.33 141.9ZM379.793 116.578C379.793 117.029 379.416 117.389 378.944 117.389C378.472 117.389 378.095 117.029 378.095 116.578C378.095 116.128 378.472 115.768 378.944 115.768C379.416 115.768 379.793 116.128 379.793 116.578Z" fill="white"/>
<path opacity="0.6" d="M432.44 48.1599C435.02 48.1599 437.432 48.8354 439.501 50.0127C439.992 43.1419 445.982 37.7186 453.299 37.7186C455.084 37.7186 456.789 38.0467 458.352 38.6322C460.346 32.2632 466.525 27.6183 473.842 27.6183C482.776 27.6183 490.012 34.5341 490.012 43.0583C490.012 43.277 490.005 43.4958 489.991 43.7081H490.012C498.939 43.7081 506.182 50.6239 506.182 59.1481C506.182 67.6787 498.939 74.5881 490.012 74.5881C489.452 74.5881 488.9 74.5623 488.361 74.5109H433.942C433.444 74.5623 432.945 74.5881 432.433 74.5881C424.793 74.5881 418.594 68.6694 418.594 61.374C418.601 54.0786 424.799 48.1599 432.44 48.1599Z" fill="url(#paint26_linear_3_7)"/>
<path opacity="0.3" d="M363.643 65.6522C362.168 65.6522 360.78 66.0382 359.601 66.7137C359.318 62.7765 355.888 59.6692 351.697 59.6692C350.795 59.6692 349.926 59.8236 349.117 60.0938C347.951 56.4911 344.428 53.8663 340.271 53.8663C339.961 53.8663 339.651 53.8856 339.348 53.9113C335.46 54.1429 332.226 56.6584 331.101 60.0745C330.286 59.8043 329.417 59.6499 328.507 59.6499C324.316 59.6499 320.887 62.7572 320.604 66.6944C319.382 65.9976 317.985 65.6307 316.561 65.6329C312.182 65.6329 308.638 69.0232 308.638 73.1985C308.638 77.3801 312.189 80.7641 316.561 80.7641C316.851 80.7641 317.141 80.7448 317.424 80.719H329.592C329.949 80.7576 330.306 80.7834 330.676 80.7834C330.993 80.7834 331.31 80.7705 331.62 80.7383H348.996C349.171 80.7448 349.346 80.7641 349.528 80.7641C349.71 80.7641 349.885 80.7448 350.06 80.7383H362.781C363.064 80.7705 363.353 80.7834 363.643 80.7834C368.022 80.7834 371.566 77.393 371.566 73.2178C371.566 69.0425 368.016 65.6522 363.643 65.6522Z" fill="url(#paint27_linear_3_7)"/>
<defs>
<radialGradient id="paint0_radial_3_7" cx="0" cy="0" r="1" gradientUnits="userSpaceOnUse" gradientTransform="translate(311.3 179.078) scale(139.228 132.942)">
<stop stop-color="#3E82BF"/>
<stop offset="1" stop-color="#3E82BF" stop-opacity="0"/>
</radialGradient>
<linearGradient id="paint1_linear_3_7" x1="400.048" y1="32.5506" x2="387.873" y2="95.9496" gradientUnits="userSpaceOnUse">
<stop stop-color="#88CFDA"/>
<stop offset="0.008" stop-color="#89CFD9"/>
<stop offset="0.478" stop-color="#C8D9BB"/>
<stop offset="0.822" stop-color="#F0DFA7"/>
<stop offset="1" stop-color="#FFE1A0"/>
</linearGradient>
<linearGradient id="paint2_linear_3_7" x1="171.634" y1="50.3679" x2="188.557" y2="50.3679" gradientUnits="userSpaceOnUse">
<stop stop-color="#7633FF"/>
<stop offset="0.159" stop-color="#7137FF"/>
<stop offset="0.353" stop-color="#6243FF"/>
<stop offset="0.568" stop-color="#4957FF"/>
<stop offset="0.794" stop-color="#2672FF"/>
<stop offset="1" stop-color="#0090FF"/>
</linearGradient>
<linearGradient id="paint3_linear_3_7" x1="37.891" y1="131.823" x2="50.5831" y2="131.823" gradientUnits="userSpaceOnUse">
<stop stop-color="#7633FF"/>
<stop offset="0.159" stop-color="#7137FF"/>
<stop offset="0.353" stop-color="#6243FF"/>
<stop offset="0.568" stop-color="#4957FF"/>
<stop offset="0.794" stop-color="#2672FF"/>
<stop offset="1" stop-color="#0090FF"/>
</linearGradient>
<linearGradient id="paint4_linear_3_7" x1="464.092" y1="121.273" x2="215.016" y2="278.97" gradientUnits="userSpaceOnUse">
<stop stop-color="#1DACFF"/>
<stop offset="0.136" stop-color="#1CA9FB"/>
<stop offset="0.274" stop-color="#1B9FEF"/>
<stop offset="0.414" stop-color="#188EDA"/>
<stop offset="0.555" stop-color="#1476BD"/>
<stop offset="0.696" stop-color="#0F5898"/>
<stop offset="0.839" stop-color="#08326B"/>
<stop offset="0.979" stop-color="#010737"/>
<stop offset="1" stop-color="#00002E"/>
</linearGradient>
<linearGradient id="paint5_linear_3_7" x1="437.093" y1="123.084" x2="294.429" y2="213.205" gradientUnits="userSpaceOnUse">
<stop stop-color="#1DACFF"/>
<stop offset="0.136" stop-color="#1CA9FB"/>
<stop offset="0.274" stop-color="#1B9FEF"/>
<stop offset="0.414" stop-color="#188EDA"/>
<stop offset="0.555" stop-color="#1476BD"/>
<stop offset="0.696" stop-color="#0F5898"/>
<stop offset="0.839" stop-color="#08326B"/>
<stop offset="0.979" stop-color="#010737"/>
<stop offset="1" stop-color="#00002E"/>
</linearGradient>
<linearGradient id="paint6_linear_3_7" x1="7.11884" y1="329.026" x2="144.381" y2="329.026" gradientUnits="userSpaceOnUse">
<stop stop-color="#88AEDA"/>
<stop offset="0.042" stop-color="#8EADD4"/>
<stop offset="0.496" stop-color="#CBA895"/>
<stop offset="0.828" stop-color="#F1A56D"/>
<stop offset="1" stop-color="#FFA45E"/>
</linearGradient>
<linearGradient id="paint7_linear_3_7" x1="38.494" y1="323.887" x2="141.651" y2="323.887" gradientUnits="userSpaceOnUse">
<stop stop-color="#88CFDA"/>
<stop offset="0.042" stop-color="#8ED0D4"/>
<stop offset="0.496" stop-color="#CBD995"/>
<stop offset="0.828" stop-color="#F1DF6D"/>
<stop offset="1" stop-color="#FFE15E"/>
</linearGradient>
<linearGradient id="paint8_linear_3_7" x1="246.274" y1="291.953" x2="129.877" y2="133.161" gradientUnits="userSpaceOnUse">
<stop stop-color="#A1BAFF"/>
<stop offset="0.488" stop-color="white"/>
</linearGradient>
<linearGradient id="paint9_linear_3_7" x1="321.808" y1="227.972" x2="299.559" y2="189.954" gradientUnits="userSpaceOnUse">
<stop stop-color="#3D00BA"/>
<stop offset="0.745" stop-color="#CE00FF"/>
</linearGradient>
<linearGradient id="paint10_linear_3_7" x1="151.288" y1="330.42" x2="230.068" y2="330.42" gradientUnits="userSpaceOnUse">
<stop stop-color="#3D00BA"/>
<stop offset="0.745" stop-color="#CE00FF"/>
</linearGradient>
<linearGradient id="paint11_linear_3_7" x1="169.201" y1="258.711" x2="122.577" y2="239.499" gradientUnits="userSpaceOnUse">
<stop stop-color="#3D00BA"/>
<stop offset="0.745" stop-color="#CE00FF"/>
</linearGradient>
<linearGradient id="paint12_linear_3_7" x1="161.697" y1="324.896" x2="131.235" y2="276.475" gradientUnits="userSpaceOnUse">
<stop stop-color="#270036"/>
<stop offset="0.438" stop-color="#4F008B"/>
<stop offset="1" stop-color="#4C24B1"/>
</linearGradient>
<linearGradient id="paint13_linear_3_7" x1="123.504" y1="286.24" x2="145.151" y2="325.913" gradientUnits="userSpaceOnUse">
<stop stop-color="#7633FF"/>
<stop offset="0.159" stop-color="#7137FF"/>
<stop offset="0.353" stop-color="#6243FF"/>
<stop offset="0.568" stop-color="#4957FF"/>
<stop offset="0.794" stop-color="#2672FF"/>
<stop offset="1" stop-color="#0090FF"/>
</linearGradient>
<linearGradient id="paint14_linear_3_7" x1="208.458" y1="255.614" x2="109.551" y2="310.977" gradientUnits="userSpaceOnUse">
<stop stop-color="#7633FF"/>
<stop offset="0.132" stop-color="#6342FF"/>
<stop offset="0.534" stop-color="#2E6CFF"/>
<stop offset="0.835" stop-color="#0D86FF"/>
<stop offset="1" stop-color="#0090FF"/>
</linearGradient>
<linearGradient id="paint15_linear_3_7" x1="104.639" y1="287.171" x2="202.388" y2="287.171" gradientUnits="userSpaceOnUse">
<stop stop-color="#3D00BA"/>
<stop offset="0.745" stop-color="#CE00FF"/>
</linearGradient>
<linearGradient id="paint16_linear_3_7" x1="223.293" y1="120.089" x2="283.767" y2="120.089" gradientUnits="userSpaceOnUse">
<stop stop-color="#7633FF"/>
<stop offset="0.159" stop-color="#7137FF"/>
<stop offset="0.353" stop-color="#6243FF"/>
<stop offset="0.568" stop-color="#4957FF"/>
<stop offset="0.794" stop-color="#2672FF"/>
<stop offset="1" stop-color="#0090FF"/>
</linearGradient>
<linearGradient id="paint17_linear_3_7" x1="214.683" y1="212.368" x2="242.425" y2="117.758" gradientUnits="userSpaceOnUse">
<stop stop-color="#7633FF"/>
<stop offset="0.111" stop-color="#6640FF"/>
<stop offset="0.524" stop-color="#2F6BFF"/>
<stop offset="0.833" stop-color="#0D86FF"/>
<stop offset="1" stop-color="#0090FF"/>
</linearGradient>
<linearGradient id="paint18_linear_3_7" x1="223.688" y1="164.581" x2="242.198" y2="164.581" gradientUnits="userSpaceOnUse">
<stop stop-color="#7700BB"/>
<stop offset="1"/>
</linearGradient>
<linearGradient id="paint19_linear_3_7" x1="220.497" y1="127.569" x2="238.191" y2="127.569" gradientUnits="userSpaceOnUse">
<stop stop-color="#7633FF"/>
<stop offset="0.159" stop-color="#7137FF"/>
<stop offset="0.353" stop-color="#6243FF"/>
<stop offset="0.568" stop-color="#4957FF"/>
<stop offset="0.794" stop-color="#2672FF"/>
<stop offset="1" stop-color="#0090FF"/>
</linearGradient>
<linearGradient id="paint20_linear_3_7" x1="222.325" y1="181.574" x2="239.746" y2="181.574" gradientUnits="userSpaceOnUse">
<stop stop-color="#7700BB"/>
<stop offset="1"/>
</linearGradient>
<linearGradient id="paint21_linear_3_7" x1="189.419" y1="260.619" x2="211.099" y2="260.619" gradientUnits="userSpaceOnUse">
<stop stop-color="#270036"/>
<stop offset="0.594" stop-color="#4F008B"/>
<stop offset="1" stop-color="#4C24B1"/>
</linearGradient>
<linearGradient id="paint22_linear_3_7" x1="231.81" y1="125.126" x2="255.295" y2="125.126" gradientUnits="userSpaceOnUse">
<stop stop-color="#A1BAFF"/>
<stop offset="0.488" stop-color="white"/>
</linearGradient>
<linearGradient id="paint23_linear_3_7" x1="223.678" y1="164.548" x2="284.653" y2="164.548" gradientUnits="userSpaceOnUse">
<stop stop-color="#7633FF"/>
<stop offset="0.159" stop-color="#7137FF"/>
<stop offset="0.353" stop-color="#6243FF"/>
<stop offset="0.568" stop-color="#4957FF"/>
<stop offset="0.794" stop-color="#2672FF"/>
<stop offset="1" stop-color="#0090FF"/>
</linearGradient>
<linearGradient id="paint24_linear_3_7" x1="285.911" y1="189.121" x2="309.332" y2="189.121" gradientUnits="userSpaceOnUse">
<stop stop-color="#A1BAFF"/>
<stop offset="0.488" stop-color="white"/>
</linearGradient>
<linearGradient id="paint25_linear_3_7" x1="283.491" y1="99.0765" x2="303.507" y2="99.0765" gradientUnits="userSpaceOnUse">
<stop stop-color="#A1BAFF"/>
<stop offset="0.488" stop-color="white"/>
</linearGradient>
<linearGradient id="paint26_linear_3_7" x1="418.602" y1="51.1025" x2="506.191" y2="51.1025" gradientUnits="userSpaceOnUse">
<stop stop-color="#A1BAFF"/>
<stop offset="0.089" stop-color="#ACC2FF"/>
<stop offset="0.499" stop-color="#D9E3FF"/>
<stop offset="0.816" stop-color="#F5F7FF"/>
<stop offset="1" stop-color="white"/>
</linearGradient>
<linearGradient id="paint27_linear_3_7" x1="308.626" y1="67.3274" x2="371.566" y2="67.3274" gradientUnits="userSpaceOnUse">
<stop stop-color="#A1BAFF"/>
<stop offset="0.089" stop-color="#ACC2FF"/>
<stop offset="0.499" stop-color="#D9E3FF"/>
<stop offset="0.816" stop-color="#F5F7FF"/>
<stop offset="1" stop-color="white"/>
</linearGradient>
</defs>
</svg>
