<svg width="100" height="100" viewBox="0 0 100 100" fill="none" xmlns="http://www.w3.org/2000/svg">
<path d="M63.0042 50C63.0047 50.5473 62.8972 51.0892 62.6877 51.5948C62.4781 52.1003 62.1708 52.5595 61.7833 52.9459L44.1083 70.625C43.3225 71.384 42.27 71.804 41.1775 71.7945C40.085 71.785 39.0399 71.3468 38.2674 70.5743C37.4949 69.8018 37.0567 68.7567 37.0472 67.6642C37.0377 66.5717 37.4577 65.5192 38.2167 64.7334L52.9458 50L38.2167 35.2667C37.4577 34.4809 37.0377 33.4284 37.0472 32.3359C37.0567 31.2434 37.4949 30.1983 38.2674 29.4258C39.0399 28.6533 40.085 28.2151 41.1775 28.2056C42.27 28.1961 43.3225 28.616 44.1083 29.375L61.7833 47.0542C62.1708 47.4406 62.4781 47.8998 62.6877 48.4053C62.8972 48.9109 63.0047 49.4528 63.0042 50Z" fill="#6563FF"/>
</svg>
