<svg width="100" height="100" viewBox="0 0 100 100" fill="none" xmlns="http://www.w3.org/2000/svg">
<path d="M50 63.0042C49.4528 63.0048 48.9108 62.8972 48.4053 62.6877C47.8997 62.4782 47.4406 62.1709 47.0542 61.7834L29.375 44.1084C28.616 43.3225 28.196 42.27 28.2055 41.1775C28.215 40.085 28.6532 39.04 29.4258 38.2674C30.1983 37.4949 31.2433 37.0567 32.3358 37.0472C33.4283 37.0377 34.4808 37.4577 35.2667 38.2167L50 52.9459L64.7333 38.2167C65.5192 37.4577 66.5717 37.0377 67.6642 37.0472C68.7567 37.0567 69.8017 37.4949 70.5742 38.2674C71.3468 39.04 71.785 40.085 71.7945 41.1775C71.804 42.27 71.384 43.3225 70.625 44.1084L52.9458 61.7834C52.5594 62.1709 52.1003 62.4782 51.5947 62.6877C51.0892 62.8972 50.5472 63.0048 50 63.0042Z" fill="#6563FF"/>
</svg>
